<mxfile host="app.diagrams.net" modified="2021-11-15T20:26:19.211Z" agent="5.0 (Windows NT 10.0; Win64; x64) AppleWebKit/537.36 (KHTML, like Gecko) Chrome/95.0.4638.69 Safari/537.36" etag="-N1QSnOk3eTa8OLiSCsj" version="15.7.4" type="github">
  <diagram id="wt-XBIgJiF0bBrsMzn5A" name="Page-1">
    <mxGraphModel dx="1209" dy="626" grid="1" gridSize="10" guides="1" tooltips="1" connect="1" arrows="1" fold="1" page="1" pageScale="1" pageWidth="827" pageHeight="1169" math="0" shadow="0">
      <root>
        <mxCell id="0" />
        <mxCell id="1" parent="0" />
        <mxCell id="U1WlXD6wTfTb1AdTXm8f-3" style="edgeStyle=orthogonalEdgeStyle;rounded=0;orthogonalLoop=1;jettySize=auto;html=1;exitX=0.5;exitY=1;exitDx=0;exitDy=0;entryX=0.5;entryY=0;entryDx=0;entryDy=0;" edge="1" parent="1" source="U1WlXD6wTfTb1AdTXm8f-1" target="U1WlXD6wTfTb1AdTXm8f-2">
          <mxGeometry relative="1" as="geometry" />
        </mxCell>
        <mxCell id="U1WlXD6wTfTb1AdTXm8f-1" value="" style="ellipse;whiteSpace=wrap;html=1;" vertex="1" parent="1">
          <mxGeometry x="354" y="225" width="120" height="80" as="geometry" />
        </mxCell>
        <mxCell id="U1WlXD6wTfTb1AdTXm8f-7" style="edgeStyle=orthogonalEdgeStyle;rounded=0;orthogonalLoop=1;jettySize=auto;html=1;exitX=0.5;exitY=1;exitDx=0;exitDy=0;entryX=0.5;entryY=0;entryDx=0;entryDy=0;" edge="1" parent="1" source="U1WlXD6wTfTb1AdTXm8f-2" target="U1WlXD6wTfTb1AdTXm8f-6">
          <mxGeometry relative="1" as="geometry" />
        </mxCell>
        <mxCell id="U1WlXD6wTfTb1AdTXm8f-2" value="" style="rounded=0;whiteSpace=wrap;html=1;" vertex="1" parent="1">
          <mxGeometry x="354" y="340" width="120" height="60" as="geometry" />
        </mxCell>
        <mxCell id="U1WlXD6wTfTb1AdTXm8f-4" value="Start" style="text;html=1;strokeColor=none;fillColor=none;align=center;verticalAlign=middle;whiteSpace=wrap;rounded=0;" vertex="1" parent="1">
          <mxGeometry x="384" y="250" width="60" height="30" as="geometry" />
        </mxCell>
        <mxCell id="U1WlXD6wTfTb1AdTXm8f-5" value="Transmit IR signal" style="text;html=1;strokeColor=none;fillColor=none;align=center;verticalAlign=middle;whiteSpace=wrap;rounded=0;" vertex="1" parent="1">
          <mxGeometry x="377" y="352.5" width="74" height="35" as="geometry" />
        </mxCell>
        <mxCell id="U1WlXD6wTfTb1AdTXm8f-10" style="edgeStyle=orthogonalEdgeStyle;rounded=0;orthogonalLoop=1;jettySize=auto;html=1;exitX=0.5;exitY=1;exitDx=0;exitDy=0;entryX=0.5;entryY=0;entryDx=0;entryDy=0;" edge="1" parent="1" source="U1WlXD6wTfTb1AdTXm8f-6" target="U1WlXD6wTfTb1AdTXm8f-9">
          <mxGeometry relative="1" as="geometry" />
        </mxCell>
        <mxCell id="U1WlXD6wTfTb1AdTXm8f-26" style="edgeStyle=orthogonalEdgeStyle;rounded=0;orthogonalLoop=1;jettySize=auto;html=1;exitX=1;exitY=0.5;exitDx=0;exitDy=0;entryX=1;entryY=0.5;entryDx=0;entryDy=0;" edge="1" parent="1" source="U1WlXD6wTfTb1AdTXm8f-6" target="U1WlXD6wTfTb1AdTXm8f-2">
          <mxGeometry relative="1" as="geometry">
            <Array as="points">
              <mxPoint x="610" y="485" />
              <mxPoint x="610" y="370" />
            </Array>
          </mxGeometry>
        </mxCell>
        <mxCell id="U1WlXD6wTfTb1AdTXm8f-6" value="" style="rhombus;whiteSpace=wrap;html=1;" vertex="1" parent="1">
          <mxGeometry x="357" y="430" width="114" height="110" as="geometry" />
        </mxCell>
        <mxCell id="U1WlXD6wTfTb1AdTXm8f-8" value="If Proximity Sensor received the signal" style="text;html=1;strokeColor=none;fillColor=none;align=center;verticalAlign=middle;whiteSpace=wrap;rounded=0;" vertex="1" parent="1">
          <mxGeometry x="386" y="460" width="56" height="35" as="geometry" />
        </mxCell>
        <mxCell id="U1WlXD6wTfTb1AdTXm8f-13" style="edgeStyle=orthogonalEdgeStyle;rounded=0;orthogonalLoop=1;jettySize=auto;html=1;exitX=0.5;exitY=1;exitDx=0;exitDy=0;entryX=0.5;entryY=0;entryDx=0;entryDy=0;" edge="1" parent="1" source="U1WlXD6wTfTb1AdTXm8f-9" target="U1WlXD6wTfTb1AdTXm8f-12">
          <mxGeometry relative="1" as="geometry" />
        </mxCell>
        <mxCell id="U1WlXD6wTfTb1AdTXm8f-9" value="" style="rounded=0;whiteSpace=wrap;html=1;" vertex="1" parent="1">
          <mxGeometry x="354" y="580" width="120" height="60" as="geometry" />
        </mxCell>
        <mxCell id="U1WlXD6wTfTb1AdTXm8f-11" value="Calculate obstacle distance" style="text;html=1;strokeColor=none;fillColor=none;align=center;verticalAlign=middle;whiteSpace=wrap;rounded=0;" vertex="1" parent="1">
          <mxGeometry x="384" y="595" width="60" height="30" as="geometry" />
        </mxCell>
        <mxCell id="U1WlXD6wTfTb1AdTXm8f-17" style="edgeStyle=orthogonalEdgeStyle;rounded=0;orthogonalLoop=1;jettySize=auto;html=1;exitX=1;exitY=0.5;exitDx=0;exitDy=0;entryX=0.5;entryY=0;entryDx=0;entryDy=0;" edge="1" parent="1" source="U1WlXD6wTfTb1AdTXm8f-12" target="U1WlXD6wTfTb1AdTXm8f-15">
          <mxGeometry relative="1" as="geometry" />
        </mxCell>
        <mxCell id="U1WlXD6wTfTb1AdTXm8f-19" style="edgeStyle=orthogonalEdgeStyle;rounded=0;orthogonalLoop=1;jettySize=auto;html=1;exitX=0;exitY=0.5;exitDx=0;exitDy=0;entryX=0.5;entryY=0;entryDx=0;entryDy=0;" edge="1" parent="1" source="U1WlXD6wTfTb1AdTXm8f-12" target="U1WlXD6wTfTb1AdTXm8f-18">
          <mxGeometry relative="1" as="geometry" />
        </mxCell>
        <mxCell id="U1WlXD6wTfTb1AdTXm8f-12" value="If distance is safe" style="rhombus;whiteSpace=wrap;html=1;" vertex="1" parent="1">
          <mxGeometry x="357" y="670" width="113" height="110" as="geometry" />
        </mxCell>
        <mxCell id="U1WlXD6wTfTb1AdTXm8f-15" value="" style="rounded=0;whiteSpace=wrap;html=1;" vertex="1" parent="1">
          <mxGeometry x="540" y="750" width="120" height="60" as="geometry" />
        </mxCell>
        <mxCell id="U1WlXD6wTfTb1AdTXm8f-18" value="" style="rounded=0;whiteSpace=wrap;html=1;" vertex="1" parent="1">
          <mxGeometry x="180" y="750" width="120" height="60" as="geometry" />
        </mxCell>
        <mxCell id="U1WlXD6wTfTb1AdTXm8f-21" value="No alert from LED" style="text;html=1;strokeColor=none;fillColor=none;align=center;verticalAlign=middle;whiteSpace=wrap;rounded=0;" vertex="1" parent="1">
          <mxGeometry x="560" y="765" width="80" height="30" as="geometry" />
        </mxCell>
        <mxCell id="U1WlXD6wTfTb1AdTXm8f-22" value="&lt;span style=&quot;color: rgb(0 , 0 , 0) ; font-family: &amp;#34;helvetica&amp;#34; ; font-size: 12px ; font-style: normal ; font-weight: 400 ; letter-spacing: normal ; text-align: center ; text-indent: 0px ; text-transform: none ; word-spacing: 0px ; background-color: rgb(248 , 249 , 250) ; display: inline ; float: none&quot;&gt;LED started&lt;br&gt;&amp;nbsp; &amp;nbsp; alerting&lt;/span&gt;" style="text;whiteSpace=wrap;html=1;" vertex="1" parent="1">
          <mxGeometry x="200" y="765" width="130" height="30" as="geometry" />
        </mxCell>
        <mxCell id="U1WlXD6wTfTb1AdTXm8f-23" value="True" style="text;html=1;strokeColor=none;fillColor=none;align=center;verticalAlign=middle;whiteSpace=wrap;rounded=0;" vertex="1" parent="1">
          <mxGeometry x="510" y="690" width="60" height="30" as="geometry" />
        </mxCell>
        <mxCell id="U1WlXD6wTfTb1AdTXm8f-24" value="&lt;span style=&quot;color: rgb(0 , 0 , 0) ; font-family: &amp;#34;helvetica&amp;#34; ; font-size: 12px ; font-style: normal ; font-weight: 400 ; letter-spacing: normal ; text-align: center ; text-indent: 0px ; text-transform: none ; word-spacing: 0px ; background-color: rgb(248 , 249 , 250) ; display: inline ; float: none&quot;&gt;False&lt;/span&gt;" style="text;whiteSpace=wrap;html=1;" vertex="1" parent="1">
          <mxGeometry x="280" y="690" width="50" height="30" as="geometry" />
        </mxCell>
        <mxCell id="U1WlXD6wTfTb1AdTXm8f-27" value="False" style="text;html=1;strokeColor=none;fillColor=none;align=center;verticalAlign=middle;whiteSpace=wrap;rounded=0;" vertex="1" parent="1">
          <mxGeometry x="500" y="460" width="60" height="30" as="geometry" />
        </mxCell>
      </root>
    </mxGraphModel>
  </diagram>
</mxfile>
